<?xml version="1.0" encoding="utf-8"?>
<svg width="75" height="75" viewBox="3.019 0 449.88 431.763" xmlns="http://www.w3.org/2000/svg">
  <g id="SVGRepo_iconCarrier" transform="matrix(0.9999999999999999, 0, 0, 0.9999999999999999, -18.983101173983542, 4.265707079555206)">
    <style type="text/css">  .st0{fill:#365ABA;}  </style>
    <g>
      <polygon class="st0" points="256,0 64,69.344 64,109.344 80,109.344 80,121.344 432,121.344 432,109.344 448,109.344 448,69.344 "/>
      <polygon class="st0" points="432,357.344 80,357.344 80,389.344 64,389.344 64,421.344 448,421.344 448,389.344 432,389.344 "/>
      <polygon class="st0" points="344,325.344 344,341.344 408,341.344 408,325.344 400,325.344 400,153.344 408,153.344 408,137.344 344,137.344 344,153.344 352,153.344 352,325.344 "/>
      <polygon class="st0" points="224,325.344 224,341.344 288,341.344 288,325.344 280,325.344 280,153.344 288,153.344 288,137.344 224,137.344 224,153.344 232,153.344 232,325.344 "/>
      <polygon class="st0" points="104,325.344 104,341.344 168,341.344 168,325.344 160,325.344 160,153.344 168,153.344 168,137.344 104,137.344 104,153.344 112,153.344 112,325.344 "/>
    </g>
  </g>
</svg>
